<?xml version="1.0" encoding="utf-8"?>
<svg id="Layer_1" xmlns="http://www.w3.org/2000/svg" xmlns:xlink="http://www.w3.org/1999/xlink" 
    class="logo-svg" version="1.2" baseProfile="tiny" viewBox="0 0 166.9 28.1" overflow="scroll">
    <path fill="#595959"
        d="M87.3 5.9h6.5v2h-4.3v1.4h3.8v1.9h-3.8v2.9h-2.2M94.8 10.5V5.9h2.3v4.5c0 1.2.6 1.7 1.5 1.7s1.5-.5 1.5-1.7V5.9h2.3v4.5c0 2.6-1.5 3.8-3.8 3.8-2.4 0-3.8-1.2-3.8-3.7M103.6 5.9h2.1l3.3 4.3V5.9h2.2v8.2h-1.9l-3.5-4.5v4.5h-2.2M115.7 12.1c1.3 0 2.2-.7 2.2-2.1 0-1.3-.9-2.1-2.2-2.1h-.9V12h.9zm-3.1-6.2h3.1c2.9 0 4.6 1.7 4.6 4s-1.7 4.1-4.6 4.1h-3.1V5.9zM125.3 10.9l-.9-2.3-.9 2.3h1.8zm-2-5h2.2l3.5 8.2h-2.4l-.6-1.5h-3.1l-.6 1.5h-2.4l3.4-8.2zM130.9 15.3l.9-1.2c-1.8-.5-3.1-2-3.1-4.1 0-2.4 1.8-4.2 4.3-4.2 1.7 0 2.7.7 3.4 1.7l-1.7 1.3c-.5-.6-1-1-1.8-1-1.1 0-1.9 1-1.9 2.1 0 1.2.8 2.2 1.9 2.2.8 0 1.3-.4 1.8-1l1.7 1.2c-.7 1-1.6 1.7-3.2 1.8l-.6 1.9-1.7-.7zM141.9 10.9l-.9-2.4-.9 2.3h1.8zm-3.3-5.7c.2-1.1.6-1.7 1.4-1.7.7 0 1.4.5 1.8.5.3 0 .4-.2.6-.5l1.1.3c-.2 1.1-.6 1.7-1.4 1.7-.7 0-1.4-.5-1.8-.5-.3 0-.4.2-.6.5l-1.1-.3zm1.3.7h2.2l3.5 8.2h-2.4l-.6-1.5h-3.1l-.6 1.5h-2.4l3.4-8.2zM151.6 10c0-1.2-.8-2.2-2.1-2.2-1.2 0-2.1 1-2.1 2.2 0 1.2.8 2.2 2.1 2.2s2.1-1 2.1-2.2m-6.4 0c0-2.4 1.9-4.2 4.4-4.2 2.5 0 4.4 1.9 4.4 4.2 0 2.3-1.9 4.2-4.4 4.2-2.6 0-4.4-1.9-4.4-4.2" />
    <g fill="#595959">
        <path
            d="M90.4 26c1.3 0 2.2-.7 2.2-2.1 0-1.3-.9-2.1-2.2-2.1h-.9V26h.9zm-3.1-6.2h3.1c2.9 0 4.6 1.7 4.6 4s-1.7 4.1-4.6 4.1h-3.1v-8.1zM102.2 23.9c0-1.2-.8-2.2-2.1-2.2-1.2 0-2.1 1-2.1 2.2 0 1.2.8 2.2 2.1 2.2s2.1-1 2.1-2.2m-6.5 0c0-2.4 1.9-4.2 4.4-4.2 2.5 0 4.4 1.9 4.4 4.2 0 2.3-1.9 4.2-4.4 4.2-2.5 0-4.4-1.9-4.4-4.2M111.6 19.8l-2 3.2-1.9-3.2h-2.4V28h2.2v-4.7l2.1 3.2 2.1-3.2V28h2.2v-8.2M118.1 23.9c0-2.4 1.8-4.2 4.3-4.2 1.7 0 2.7.7 3.4 1.7l-1.7 1.3c-.5-.6-1-1-1.8-1-1.1 0-1.9 1-1.9 2.1 0 1.2.8 2.2 1.9 2.2.8 0 1.3-.4 1.8-1l1.7 1.2c-.8 1.1-1.8 1.8-3.6 1.8-2.3.1-4.1-1.7-4.1-4.1M130.3 22.4l.9 2.3h-1.8l.9-2.3zm-1.1-2.6l-3.5 8.2h2.4l.6-1.5h3.1l.6 1.5h2.4l-3.5-8.2h-2.1zM139.4 26.1c.7 0 1.1-.3 1.1-.7 0-.4-.3-.7-1.1-.7h-1.7v1.5h1.7zm-.3-3c.7 0 1.1-.2 1.1-.7 0-.4-.3-.7-1-.7h-1.5v1.4h1.4zm-3.6-3.3h4.2c1 0 1.7.3 2.2.7.3.3.5.8.5 1.3 0 .9-.5 1.5-1.3 1.8 1 .3 1.6.9 1.6 2 0 1.4-1.1 2.2-3.1 2.2h-4.2v-8zM147.4 23.7c.8 0 1.2-.4 1.2-1s-.5-1-1.2-1h-1.5v1.9h1.5zm-3.7-3.9h3.8c1.2 0 2.1.3 2.6.9.5.5.7 1.1.7 1.9 0 1.2-.7 2.1-1.7 2.5l1.9 2.8h-2.6l-1.6-2.5h-1V28h-2.3v-8.2zM155.6 22.4l.9 2.3h-1.8l.9-2.3zm-1-2.6l-3.5 8.2h2.4l.6-1.5h3.1l.6 1.5h2.4l-3.5-8.2h-2.1zM160.8 19.8V28h6.1v-2H163v-6.2" />
    </g>
    <g>
        <path fill="#005D83"
            d="M36.3 20H40c3.8 0 6.1-2.2 6.1-6 0-3.7-2.3-6-6.1-6h-3.7v12zm3.7 8H28.3V0H40c8.2 0 14.1 5.9 14.1 14S48.2 28 40 28" />
        <g fill="#2A9FBC">
            <path d="M0 0h25.6v7.9H0zM0 10h17.2v7.9H0zM0 20.1h8.6V28H0z" />
        </g>
        <path fill="#005D83"
            d="M70.8 27.9c-7.7 0-14-6.3-14-14s6.3-14 14-14c3.7 0 7.2 1.4 9.8 4L75 9.7C73.8 8.6 72.3 8 70.8 8c-3.3 0-6 2.7-6 6s2.7 6 6 6c1.6 0 3.1-.6 4.2-1.7l5.6 5.6c-2.6 2.6-6.1 4-9.8 4" />
    </g>
</svg>